# xmcd
#
# Track frame offsets:
#	150
#	17031
#	43683
#
# Disc length: 1095 seconds
#
# Revision: 0
# Processed by: cddbd v1.5.1PL0 Copyright (c) Steve Scherf et al.
# Submitted via: audiograbber 1.83.01
#
DISCID=1c044503
DTITLE=Shawn Christopher - Sweet Freedom [CD-Single)
DYEAR=1900
DGENRE=
TTITLE0=Sweet Freedom (Radio Edit)
TTITLE1=Sweet Freedom (Push Club Mix)
TTITLE2=Sweet Freedom (The Richie Jones Throwdown Mix)
EXTD=
EXTT0=
EXTT1=
EXTT2=
PLAYORDER=
